<svg width="375" height="375" viewBox="0 0 375 375" fill="none" xmlns="http://www.w3.org/2000/svg">
<rect width="375" height="375" fill="white"/>
<path fill-rule="evenodd" clip-rule="evenodd" d="M70.1309 274.469C92.7659 299.108 180.297 284.955 237.931 284.955C262.796 284.955 346.236 297.416 311.78 211.834C198.804 -68.7766 -1.58829 196.4 70.1309 274.469Z" fill="#008080"/>
<path fill-rule="evenodd" clip-rule="evenodd" d="M170.281 276.451C170.391 276.366 170.506 276.275 170.554 276.145C170.708 275.727 170.105 275.45 169.66 275.46C169.015 275.475 168.188 275.909 168.385 276.524C168.5 276.879 168.937 277.044 169.305 276.979C169.673 276.913 169.984 276.679 170.281 276.451ZM172.199 269.134C172.686 269.287 173.167 269.476 173.591 269.76C174.388 270.294 174.93 271.122 175.45 271.927C175.823 272.505 176.201 273.093 176.387 273.755C176.589 274.472 176.553 275.237 176.418 275.969C175.997 278.249 174.59 280.33 172.63 281.57C170.67 282.809 168.186 283.188 165.946 282.591C165.51 282.474 165.07 282.316 164.735 282.013C164.453 281.76 164.263 281.422 164.089 281.084C163.176 279.315 162.561 277.349 162.631 275.359C162.702 273.37 163.52 271.356 165.069 270.106C167.013 268.536 169.815 268.386 172.199 269.134" fill="white"/>
<path fill-rule="evenodd" clip-rule="evenodd" d="M275.098 160.889C274.03 160.876 273.028 161.772 272.922 162.835C272.879 163.269 273.064 163.809 273.496 163.869C273.82 163.914 274.105 163.664 274.322 163.42C274.783 162.903 275.179 162.329 275.497 161.714C275.604 161.508 275.698 161.244 275.558 161.059C275.456 160.924 275.268 160.892 275.098 160.889ZM274.636 156.122C276.153 156.652 277.528 157.583 278.583 158.795C279.489 159.836 280.18 161.188 279.989 162.556C279.919 163.058 279.734 163.537 279.523 163.998C278.723 165.743 277.346 167.416 275.456 167.754C274.465 167.931 273.443 167.719 272.489 167.394C271.386 167.019 270.335 166.493 269.374 165.835C268.864 165.486 268.358 165.072 268.134 164.496C267.98 164.099 267.975 163.661 267.981 163.236C267.995 162.182 268.065 161.112 268.432 160.124C268.897 158.876 269.806 157.845 270.77 156.924C271.157 156.554 271.568 156.19 272.066 155.991C272.881 155.667 273.808 155.833 274.636 156.122Z" fill="white"/>
<path fill-rule="evenodd" clip-rule="evenodd" d="M275.1 80.1437C281.377 86.6169 286.331 94.3575 289.574 102.758C289.797 103.335 290.013 103.976 289.801 104.556C288.165 109.028 285.007 112.756 281.911 116.381C279.933 118.698 277.954 121.014 275.976 123.33C274.087 125.542 272.198 127.753 270.246 129.909C260.305 140.885 248.559 150.482 234.956 156.387C234.442 156.61 233.891 156.832 233.339 156.743C232.786 156.654 232.268 156.119 232.412 155.58C234.094 149.317 235.787 142.769 234.437 136.426C234.112 134.896 233.749 132.97 235.018 132.049C245.292 124.596 252.689 113.942 259.779 103.433C261.561 100.791 263.339 98.1412 264.917 95.3724C267.717 90.4563 269.874 85.1768 271.316 79.7097C271.513 78.9594 272.464 78.6216 273.217 78.8182C273.971 79.0148 274.559 79.5858 275.1 80.1437" fill="white"/>
<path fill-rule="evenodd" clip-rule="evenodd" d="M79.347 105.292C80.3675 114.518 83.2078 123.539 87.6571 131.685C90.4119 136.729 93.7626 141.418 97.1045 146.094C99.4299 149.348 101.917 152.738 105.545 154.42C106.51 154.867 106.375 156.258 106.116 157.289C104.997 161.747 104.475 166.354 104.568 170.949C104.577 171.384 104.588 171.834 104.418 172.233C103.839 173.588 101.855 173.363 100.489 172.808C92.0383 169.378 85.5503 162.479 79.4895 155.663C71.6204 146.815 63.8685 137.577 59.2199 126.686C58.9038 125.946 58.5972 125.167 58.65 124.364C58.7039 123.545 59.1244 122.801 59.551 122.101C63.7651 115.179 69.6276 109.269 76.5148 104.999C76.9999 104.698 77.5178 104.396 78.0882 104.377C78.6587 104.357 79.2842 104.724 79.347 105.292Z" fill="white"/>
<path fill-rule="evenodd" clip-rule="evenodd" d="M273.868 267.137C274.596 265.903 275.499 264.544 276.913 264.31C277.47 264.218 277.764 263.612 277.954 263.08C280.29 256.526 280.516 249.236 278.588 242.55C278.038 240.641 278.715 238.618 279.385 236.748C281.115 231.923 282.845 227.098 284.575 222.272C283.584 220.558 280.971 220.609 279.632 219.15C277.909 217.273 279.209 214.287 280.558 212.126C288.442 199.5 296.327 186.873 304.211 174.247C305.177 172.7 307.296 172.215 309.073 172.627C310.849 173.04 312.367 174.158 313.828 175.249C319.578 179.544 325.328 183.839 331.078 188.134C334.165 190.439 337.571 193.383 337.394 197.231C337.295 199.36 336.077 201.253 334.898 203.029C330.341 209.896 325.784 216.763 321.227 223.63C318.66 227.499 319.368 232.58 318.593 237.157C317.367 244.39 312.407 250.331 307.814 256.051C303.221 261.772 298.625 268.16 298.367 275.491C298.059 284.23 293.908 292.764 287.223 298.401C289.162 293.697 276.913 295.573 262.9 289.998C265.206 281.841 269.56 274.437 273.868 267.137Z" fill="white"/>
<path fill-rule="evenodd" clip-rule="evenodd" d="M120.005 287.595C119.131 286.88 118.853 285.674 118.699 284.552C116.914 271.577 124.578 258.771 123.213 245.745C122.509 239.032 119.425 232.768 115.543 227.26C112.863 223.456 112.713 218.359 113.713 213.808C114.713 209.256 116.73 205 118.091 200.544C124.141 180.727 116.779 159.556 109.5 140.161C124.004 133.147 140.929 134.506 156.998 135.456C173.066 136.406 190.347 136.474 203.739 127.5C205.574 146.912 201.527 166.346 197.502 185.422C217.923 183.433 238.344 181.443 258.764 179.454C259.35 179.397 259.99 179.353 260.477 179.685C261.126 180.129 261.226 181.034 261.263 181.822C262.218 202.01 262.796 222.216 262.999 242.426C263.004 242.933 262.986 243.498 262.631 243.858C262.327 244.166 261.862 244.23 261.433 244.278C232.823 247.466 204.213 250.654 175.603 253.843C173.129 254.118 169.604 253.474 169.749 250.977C170.395 239.841 170.018 228.645 168.624 217.579C161.021 217.291 153.366 218.451 146.185 220.978C144.555 221.551 142.596 223.093 143.475 224.586C149.288 234.465 142.073 249.314 149.968 257.606C152.683 260.457 152.496 264.943 151.958 268.852C150.804 277.231 148.845 285.498 146.116 293.5C147.435 284.29 120.811 292.534 120.005 287.595Z" fill="white"/>
<path fill-rule="evenodd" clip-rule="evenodd" d="M38.1729 78.5134C38.1973 78.71 38.0909 78.9165 37.9165 79.0108C37.7777 78.8719 37.6388 78.733 37.5 78.594C37.7082 78.503 37.9442 78.477 38.1672 78.5206L38.1729 78.5134Z" fill="#00160A"/>
<path fill-rule="evenodd" clip-rule="evenodd" d="M171.699 269.134C172.186 269.287 172.667 269.476 173.091 269.76C173.888 270.294 174.43 271.122 174.95 271.927C175.323 272.505 175.701 273.093 175.887 273.755C176.089 274.472 176.053 275.237 175.918 275.969C175.497 278.249 174.09 280.33 172.13 281.57C170.17 282.809 167.686 283.188 165.446 282.591C165.01 282.474 164.57 282.316 164.235 282.013C163.953 281.76 163.763 281.422 163.589 281.084C162.676 279.315 162.061 277.349 162.131 275.359C162.202 273.37 163.02 271.356 164.569 270.106C166.513 268.536 169.315 268.386 171.699 269.134M168.966 280.981C170.185 280.796 171.258 280 171.958 278.986C172.659 277.971 173.018 276.755 173.191 275.534C173.289 274.837 173.298 274.038 172.806 273.535C172.512 273.234 172.091 273.099 171.687 272.979C170.172 272.525 168.442 272.14 167.085 272.952C166.097 273.543 165.546 274.639 165.046 275.677C164.461 276.892 164.606 278.426 165.407 279.511C166.209 280.595 167.633 281.184 168.966 280.981V280.981Z" fill="#00160A"/>
<path fill-rule="evenodd" clip-rule="evenodd" d="M227.37 214.394C227.391 214.135 227.422 213.858 227.593 213.663C227.76 213.472 228.024 213.404 228.271 213.346C234.638 211.864 241.214 211.284 247.742 211.629C248.574 211.673 249.643 211.954 249.698 212.785C250.013 217.548 250.329 222.311 250.644 227.074C250.66 227.315 250.668 227.582 250.514 227.768C250.388 227.919 250.185 227.978 249.995 228.028C243.205 229.798 236.048 230.147 229.118 229.046C228.94 229.017 228.752 228.984 228.613 228.868C228.446 228.728 228.387 228.499 228.339 228.286C227.318 223.74 226.989 219.038 227.37 214.394ZM228.871 222.295C228.996 224.093 229.373 225.874 229.988 227.569C230.602 227.658 231.209 227.785 231.82 227.888C237.086 228.78 242.472 227.883 247.738 226.987C248.111 226.923 248.521 226.839 248.752 226.538C248.987 226.231 248.956 225.803 248.913 225.418C248.732 223.777 248.551 222.136 248.369 220.495C248.355 220.362 248.336 220.22 248.246 220.122C248.138 220.002 247.96 219.983 247.799 219.972C244.057 219.726 240.302 220.005 236.563 220.284C234.496 220.439 232.429 220.593 230.362 220.747C229.876 220.783 229.324 220.855 229.045 221.254C228.839 221.548 228.846 221.937 228.871 222.295ZM228.929 215.43C228.602 216.479 228.543 217.611 228.76 218.688C228.799 218.882 228.854 219.086 229.001 219.218C229.218 219.413 229.551 219.381 229.84 219.338C233.362 218.823 236.921 218.566 240.481 218.572C240.983 218.573 241.137 217.897 241.131 217.395C241.123 216.659 241.115 215.924 241.107 215.188C241.102 214.763 241.081 214.294 240.79 213.983C240.439 213.61 239.854 213.622 239.344 213.661C238.165 213.751 236.986 213.841 235.807 213.931C235.243 213.974 233.747 214.357 233.059 214.403C231.862 214.594 230.665 214.785 229.468 214.976C229.34 214.996 229.206 215.02 229.107 215.103C229.012 215.185 228.967 215.31 228.929 215.43ZM244.717 218.631C245.653 218.643 246.59 218.549 247.505 218.352C247.723 218.305 247.952 218.246 248.107 218.086C248.335 217.851 248.333 217.484 248.316 217.157C248.268 216.209 248.22 215.26 248.171 214.312C248.154 213.973 248.116 213.592 247.851 213.381C247.619 213.194 247.29 213.205 246.993 213.226C245.953 213.296 244.912 213.367 243.872 213.438C243.707 213.449 243.534 213.463 243.396 213.554C243.144 213.721 243.106 214.07 243.099 214.372C243.076 215.377 243.117 216.384 243.222 217.384C243.253 217.673 243.295 217.978 243.474 218.208C243.753 218.565 244.264 218.625 244.717 218.631Z" fill="#FFB61D"/>
<path fill-rule="evenodd" clip-rule="evenodd" d="M243.664 193.58C245.055 192.978 246.762 193.179 247.974 194.089C249.187 194.998 249.858 196.581 249.669 198.084C250.521 197.624 251.602 197.17 252.397 197.723C253.295 198.348 253.09 199.693 252.955 200.779C252.72 202.676 253.025 204.637 253.827 206.372C254.158 207.089 254.443 208.176 253.708 208.465C253.584 208.514 253.449 208.525 253.316 208.536C244.701 209.23 236.086 209.925 227.471 210.619C227.235 210.638 226.971 210.648 226.792 210.493C226.61 210.334 226.587 210.063 226.577 209.822C226.494 207.795 226.412 205.769 226.329 203.743C226.307 203.199 226.296 202.613 226.603 202.164C227.111 201.421 228.176 201.423 229.065 201.28C229.954 201.138 230.988 200.388 230.646 199.555C230.264 198.627 231.564 197.949 232.557 197.798C233.549 197.647 234.865 197.055 234.564 196.097C234.236 195.051 235.676 194.402 236.762 194.258C237.529 194.156 238.331 194.057 239.059 194.321C239.786 194.584 240.401 195.333 240.237 196.089C240.05 196.954 241.104 197.761 241.935 197.455C242.767 197.149 243.103 196.013 242.683 195.234C242.339 194.597 243.001 193.867 243.664 193.58ZM248.113 206.933C247.791 206.336 247.789 205.624 247.786 204.946C247.772 201.759 247.576 198.572 247.199 195.407C247.18 195.248 247.15 195.069 247.02 194.976C246.907 194.895 246.755 194.904 246.617 194.917C245.944 194.98 245.147 195.129 244.881 195.75C244.767 196.015 244.781 196.315 244.796 196.603C244.967 199.797 245.137 202.992 245.308 206.186C245.324 206.484 245.363 206.825 245.611 206.991C245.745 207.082 245.915 207.099 246.077 207.108C246.759 207.145 247.447 207.086 248.113 206.933ZM236.526 202.022C236.442 202.554 236.325 203.082 236.294 203.62C236.242 204.519 236.431 205.412 236.619 206.292C236.74 206.857 237.47 207.135 238.004 206.917C238.539 206.699 238.862 206.129 238.951 205.559C239.039 204.988 238.935 204.408 238.844 203.838C238.487 201.598 238.333 199.327 238.383 197.06C238.396 196.486 237.836 195.968 237.265 196.024C236.694 196.081 236.248 196.699 236.373 197.259C236.721 198.818 236.774 200.443 236.526 202.022ZM242.192 198.963C241.856 198.523 241.086 198.757 240.824 199.244C240.562 199.732 240.642 200.323 240.707 200.873C240.877 202.308 240.893 203.762 240.755 205.201C240.715 205.625 240.67 206.088 240.904 206.444C241.264 206.992 242.054 206.987 242.707 206.92C242.911 206.899 243.146 206.86 243.249 206.682C243.321 206.558 243.304 206.404 243.285 206.263C242.984 204.03 242.683 201.798 242.382 199.565C242.354 199.354 242.321 199.132 242.192 198.963ZM249.654 199.922C249.401 200.267 249.348 200.716 249.326 201.144C249.25 202.609 249.444 204.073 249.638 205.527C249.714 206.101 249.976 206.837 250.553 206.798C251.138 206.758 251.29 205.976 251.277 205.391C251.241 203.839 251.205 202.288 251.169 200.737C251.159 200.329 251.116 199.856 250.778 199.629C250.423 199.39 249.907 199.577 249.654 199.922ZM231.996 199.555C231.996 199.555 232.252 201.58 232.342 202.612C232.454 203.907 232.598 205.199 232.771 206.487C232.797 206.674 232.83 206.877 232.968 207.006C233.208 207.229 234.131 207.081 234.301 206.801C234.471 206.521 234.461 206.172 234.447 205.845C234.4 204.811 234.353 203.777 234.306 202.743C234.256 201.635 233.992 199.244 233.992 199.244M228.647 206.886C228.721 207.118 228.808 207.361 228.996 207.516C229.362 207.819 229.955 207.632 230.244 207.254C230.532 206.877 230.597 206.38 230.652 205.908C230.72 205.329 230.786 204.728 230.598 204.176C230.411 203.624 229.892 203.138 229.311 203.19C228.777 203.237 228.364 203.725 228.239 204.246C228.114 204.767 228.22 205.314 228.349 205.834C228.437 206.188 228.537 206.539 228.647 206.886Z" fill="#E7EAEE"/>
<path fill-rule="evenodd" clip-rule="evenodd" d="M263.57 123.981C262.875 125.025 262.12 126.082 261.044 126.727C259.968 127.371 258.482 127.497 257.515 126.698C256.448 125.816 256.382 124.227 256.467 122.845C256.499 122.313 256.542 121.777 256.694 121.267C256.959 120.381 257.536 119.625 258.138 118.924C258.869 118.074 259.679 117.254 260.693 116.776C261.707 116.297 262.967 116.213 263.917 116.808C265.054 117.521 265.475 119.037 265.26 120.361C265.044 121.686 264.314 122.864 263.57 123.981M261.361 125.085C262.238 124.151 262.991 123.1 263.592 121.968C263.987 121.223 264.324 120.414 264.308 119.571C264.292 118.728 263.848 117.847 263.065 117.534C262.045 117.126 260.925 117.778 260.073 118.471C259.466 118.964 258.878 119.505 258.489 120.183C258.243 120.612 258.083 121.083 257.925 121.552C257.625 122.438 257.321 123.361 257.435 124.289C257.549 125.217 258.214 126.149 259.144 126.246C260.005 126.335 260.769 125.716 261.361 125.085Z" fill="#FFB61D"/>
<path fill-rule="evenodd" clip-rule="evenodd" d="M84.3995 135.781C85.4891 136.885 86.3886 138.176 87.0465 139.58C87.7078 140.992 87.0411 142.806 85.7434 143.67C84.4457 144.533 82.6912 144.522 81.2683 143.885C79.8453 143.249 78.7272 142.061 77.9036 140.738C77.2828 139.74 76.8013 138.622 76.7497 137.448C76.6981 136.274 77.1304 135.038 78.0591 134.318C78.9985 133.59 80.3193 133.486 81.4553 133.836C82.5913 134.185 83.5645 134.936 84.3995 135.781M80.1481 135.11C79.2053 135.013 78.3678 135.878 78.2061 136.812C78.0443 137.746 78.4003 138.694 78.861 139.522C79.8599 141.318 81.6423 142.914 83.6951 142.814C84.7503 142.763 85.907 142.032 85.8883 140.976C85.8802 140.519 85.6548 140.098 85.4298 139.7C84.8318 138.644 84.186 137.598 83.3236 136.745C82.4611 135.891 81.3554 135.235 80.1481 135.11Z" fill="#FFB61D"/>
<path fill-rule="evenodd" clip-rule="evenodd" d="M166.786 274.727C167.543 274.152 168.485 273.779 169.433 273.841C170.382 273.902 171.321 274.446 171.717 275.31C172.143 276.237 171.878 277.388 171.213 278.163C170.549 278.937 169.548 279.364 168.538 279.505C167.848 279.602 167.026 279.515 166.649 278.93C166.466 278.648 166.425 278.3 166.388 277.966C166.323 277.367 166.257 276.767 166.191 276.168C166.163 275.914 166.136 275.65 166.218 275.408C166.314 275.124 166.547 274.908 166.786 274.727M169.781 276.451C169.891 276.366 170.006 276.275 170.054 276.145C170.208 275.727 169.605 275.45 169.16 275.46C168.515 275.475 167.688 275.909 167.885 276.524C168 276.879 168.437 277.044 168.805 276.978C169.173 276.913 169.484 276.678 169.781 276.451H169.781Z" fill="#00160A"/>
<path fill-rule="evenodd" clip-rule="evenodd" d="M273.995 83.065C279.892 89.1697 284.546 96.4695 287.593 104.391C287.803 104.936 288.006 105.54 287.806 106.088C286.269 110.305 283.302 113.821 280.394 117.239L274.818 123.792C273.044 125.878 271.269 127.963 269.435 129.996C260.096 140.347 249.06 149.398 236.28 154.967C235.797 155.177 235.28 155.387 234.761 155.303C234.241 155.219 233.754 154.714 233.89 154.206C235.471 148.299 237.061 142.124 235.793 136.142C235.487 134.7 235.146 132.883 236.338 132.015C245.991 124.986 252.94 114.939 259.601 105.029C261.275 102.537 262.946 100.038 264.428 97.4266C267.059 92.7905 269.085 87.8116 270.44 82.6558C270.625 81.9483 271.519 81.6297 272.226 81.8151C272.934 82.0005 273.487 82.5389 273.995 83.065ZM269.868 90.646C269.269 90.3982 268.716 91.0685 268.411 91.6406C268.08 92.2595 267.75 92.8794 267.42 93.4997L267.42 93.501C261.31 104.978 255.106 116.63 245.795 125.67C244.915 126.524 243.932 127.556 244.094 128.771C244.614 132.667 242.534 136.781 239.089 138.672C237.525 139.531 237.543 141.746 237.772 143.516C237.864 144.225 238.132 145.113 238.843 145.173C240.931 145.349 242.935 146.376 244.296 147.97C244.726 148.472 245.539 148.158 246.099 147.806C260.185 138.951 271.007 125.871 281.575 113.02C281.939 112.577 282.327 112.018 282.137 111.476C280.538 106.921 280.794 101.745 282.835 97.3697C281.631 94.9732 280.196 92.6928 278.556 90.5705C275.827 91.7552 272.617 91.7831 269.868 90.646ZM236.458 152.627C237.014 152.918 237.686 152.642 238.242 152.352C239.703 151.589 241.11 150.723 242.45 149.763C242.804 149.51 242.909 149.003 242.784 148.586C242.659 148.169 242.346 147.833 241.999 147.569C240.916 146.747 239.402 146.531 238.132 147.017C237.897 147.107 237.664 147.224 237.502 147.416C237.313 147.641 237.244 147.941 237.183 148.229C236.876 149.683 236.634 151.151 236.458 152.627ZM276.014 87.6128C275.057 85.7414 273.581 84.1388 271.794 83.0314C271.173 83.5792 271.052 84.4116 270.929 85.2603C270.845 85.8426 270.759 86.4325 270.51 86.9434C270.428 87.1098 270.329 87.269 270.23 87.4278C270.042 87.7301 269.854 88.0311 269.793 88.3783C269.701 88.9078 270.149 89.5722 270.657 89.3969C271.071 89.2545 271.504 89.346 271.94 89.4383C272.171 89.487 272.402 89.5359 272.633 89.5508C273.974 89.6374 275.087 88.5864 276.014 87.6128ZM283.6 98.8292C282.575 100.869 282.737 103.277 282.923 105.552L283.19 108.815C283.22 109.174 283.415 109.658 283.761 109.558C283.976 108.957 284.385 108.462 284.795 107.965C285.154 107.53 285.513 107.094 285.744 106.586C286.527 104.865 285.658 102.882 284.802 101.196L283.6 98.8292ZM237.704 135.041C237.747 135.679 238.41 136.157 239.049 136.139C239.688 136.121 240.264 135.707 240.638 135.188C241.011 134.669 241.216 134.05 241.416 133.443L242.075 131.436C242.259 130.877 242.27 130.021 241.685 129.955C241.474 129.932 241.272 130.043 241.099 130.167C240.443 130.633 239.965 131.303 239.501 131.959L238.234 133.748C237.96 134.136 237.672 134.566 237.704 135.041ZM86.6571 129.685C82.2078 121.538 79.3675 112.517 78.347 103.292C78.2842 102.724 77.6586 102.357 77.0882 102.376C76.5178 102.396 75.9999 102.698 75.5148 102.998C68.6276 107.268 62.7651 113.179 58.551 120.1C58.1244 120.801 57.7039 121.545 57.65 122.363C57.5972 123.167 57.9038 123.946 58.2199 124.686C62.8685 135.577 70.6204 144.814 78.4895 153.663C84.5503 160.479 91.0383 167.377 99.4889 170.808C100.855 171.362 102.839 171.588 103.418 170.233C103.586 169.838 103.577 169.394 103.568 168.965L103.568 168.949C103.475 164.354 103.997 159.747 105.116 155.289C105.375 154.257 105.51 152.867 104.545 152.419C100.917 150.738 98.4299 147.347 96.1045 144.094C92.7626 139.418 89.4119 134.728 86.6571 129.685ZM94.5116 165.293C94.0117 165.427 93.5126 165.111 93.0952 164.806C85.4039 159.17 79.4436 151.543 73.5874 144.019L63.2528 130.74C64.9973 129.629 65.2188 127.215 65.2568 125.148C65.3062 122.46 65.3423 119.692 64.3713 117.186C64.1555 116.628 64.4365 116.011 64.7373 115.495C66.0277 113.281 67.8173 111.359 69.9342 109.915C70.1392 109.775 70.3561 109.636 70.6018 109.602C71.2501 109.51 71.7474 110.141 72.0939 110.696C73.4621 112.89 75.3426 115.372 77.9221 115.191C78.9043 115.122 79.4489 116.279 79.7355 117.221C83.2986 128.935 89.9885 139.501 97.8339 148.901C98.8534 150.122 99.1091 151.771 99.3626 153.405C99.6453 155.226 99.925 157.029 101.258 158.201C102.396 159.201 102.184 160.997 101.877 162.48C101.815 162.784 101.74 163.109 101.509 163.316C101.338 163.47 101.106 163.534 100.884 163.594L94.5116 165.293ZM76.2779 112.477C74.867 111.492 73.6483 110.232 72.7096 108.789C72.5066 108.477 72.3094 108.127 72.3451 107.757C72.3838 107.354 72.687 107.031 72.9887 106.761C73.7336 106.095 74.5755 105.536 75.4797 105.11C75.8107 104.954 76.2382 104.827 76.5133 105.068C76.6752 105.211 76.7264 105.438 76.7686 105.649L78.0718 112.167C78.1488 112.552 77.7447 112.899 77.3519 112.91C76.9591 112.922 76.6 112.703 76.2779 112.477ZM63.3818 125.084C63.3541 126.309 63.2605 127.685 62.3418 128.497C62.1495 128.52 62.0218 128.309 61.9464 128.131C61.2845 126.564 60.6134 124.959 60.5091 123.261C60.4049 121.563 60.9739 119.725 62.3613 118.741C62.5491 118.608 62.8244 118.498 62.9902 118.657C63.0568 118.722 63.0852 118.815 63.1095 118.904C63.4865 120.29 63.4569 121.749 63.4245 123.185L63.3818 125.084ZM100.822 165.861C101.045 166.044 101.069 166.37 101.075 166.658L101.141 169.809C99.8482 169.092 98.6098 168.278 97.4397 167.375C97.2179 167.203 96.9741 166.926 97.11 166.681C97.1774 166.56 97.3174 166.501 97.4478 166.453C98.2842 166.145 99.149 165.913 100.028 165.763C100.299 165.716 100.609 165.687 100.822 165.861ZM100.896 153.449C100.885 153.307 100.885 153.152 100.969 153.037C101.192 152.733 101.677 153.008 101.882 153.324C102.375 154.086 102.484 155.083 102.166 155.933C101.442 155.312 100.976 154.4 100.896 153.449ZM293.435 129.522C294.723 127.9 297.072 127.666 299.143 127.717C299.627 127.729 300.125 127.752 300.566 127.953C301.791 128.511 302.051 130.113 302.092 131.459C302.13 132.683 302.123 133.924 301.825 135.112C301.528 136.301 300.912 137.446 299.928 138.176C299.485 138.503 298.972 138.742 298.429 138.833C297.589 138.974 296.73 138.758 295.933 138.461C294.87 138.066 293.862 137.523 292.947 136.852C292.5 136.525 292.038 136.096 292.024 135.542C291.99 134.265 292.133 132.983 292.447 131.744C292.648 130.952 292.927 130.162 293.435 129.522ZM296.776 137.603C298.43 138.078 300.19 136.798 300.816 135.196C301.443 133.593 301.211 131.793 300.867 130.107C300.734 129.459 300.043 129.098 299.405 128.924C298.418 128.657 297.368 128.621 296.365 128.822C295.867 128.921 295.358 129.092 295.008 129.461C294.817 129.662 294.685 129.91 294.556 130.155L293.587 131.986C293.416 132.308 293.245 132.633 293.145 132.984C292.845 134.032 293.241 135.195 293.973 136.003C294.705 136.811 295.728 137.302 296.776 137.603ZM274.636 156.122C276.153 156.652 277.528 157.583 278.583 158.795C279.489 159.836 280.18 161.189 279.989 162.556C279.919 163.058 279.734 163.537 279.523 163.998C278.723 165.743 277.346 167.416 275.456 167.754C274.465 167.931 273.443 167.719 272.489 167.394C271.386 167.019 270.335 166.493 269.374 165.835C268.864 165.486 268.358 165.072 268.134 164.496C267.98 164.099 267.975 163.661 267.981 163.236C267.995 162.183 268.065 161.112 268.432 160.125C268.897 158.876 269.806 157.845 270.77 156.924C271.157 156.554 271.568 156.19 272.066 155.992C272.881 155.667 273.808 155.833 274.636 156.122ZM276.187 165.302C277.283 164.217 277.921 162.644 277.747 161.112C277.574 159.579 276.537 158.142 275.086 157.618C274.483 157.401 273.814 157.34 273.197 157.511C272.864 157.603 272.551 157.76 272.259 157.946C271.011 158.74 270.134 160.095 269.921 161.559C269.708 163.024 270.163 164.572 271.134 165.689C271.756 166.404 272.77 166.71 273.711 166.592C274.651 166.473 275.513 165.968 276.187 165.302ZM137.743 147.089C137.692 146.366 136.726 146.177 136.002 146.198C132.2 146.31 128.404 146.595 124.629 147.051C124.009 147.126 123.959 148.126 124.456 148.504C124.954 148.881 125.647 148.811 126.266 148.723L137.743 147.089ZM125.591 151.975C125.624 151.602 126.091 151.468 126.463 151.426L148.852 148.89C149.257 148.844 149.688 148.803 150.052 148.985C150.417 149.168 150.652 149.667 150.414 149.997C150.238 150.241 149.902 150.291 149.603 150.32L126.703 152.542C126.227 152.588 125.549 152.451 125.591 151.975ZM175.784 155.746C174.531 156.021 173.246 155.569 172.044 155.12C168.16 153.668 164.291 152.177 160.437 150.645C158.881 150.027 157.175 150.953 155.775 151.872C151.727 154.531 147.828 157.421 144.106 160.52C143.149 161.317 141.678 160.758 140.714 159.972C140.51 159.805 140.309 159.628 140.108 159.45C139.357 158.786 138.596 158.114 137.624 157.976C136.131 157.764 134.817 158.896 133.735 159.947L126.756 166.725C125.818 167.636 124.83 169.096 125.665 170.103C126.216 170.767 127.228 170.733 128.086 170.634C132.563 170.115 137.018 169.387 141.471 168.66C148.831 167.457 156.188 166.256 163.632 165.998C165.282 165.941 166.932 165.931 168.583 165.92C169.617 165.914 170.651 165.907 171.684 165.889C176.345 165.808 181.003 165.494 185.633 164.948C185.857 164.922 186.112 164.876 186.228 164.683C186.316 164.537 186.294 164.352 186.269 164.184L184.308 150.84C184.208 150.162 184.034 149.378 183.414 149.085C182.788 148.789 182.051 149.171 181.537 149.635C180.733 150.361 180.114 151.326 179.503 152.277C178.5 153.838 177.52 155.364 175.784 155.746ZM143.935 163.048C148.123 159.604 152.491 156.377 157.014 153.386C157.942 152.771 159.071 152.142 160.109 152.546L171.076 156.807C172.907 157.519 174.909 158.239 176.788 157.669C178.972 157.006 180.278 154.833 181.378 152.832C181.592 152.443 182.214 152.488 182.522 152.808C182.831 153.127 182.909 153.598 182.972 154.037L183.775 159.602C183.898 160.457 184.019 161.343 183.772 162.17C183.525 162.998 182.8 163.749 181.937 163.732C167.819 163.46 153.675 164.624 139.792 167.201C139.362 167.281 138.932 167.362 138.502 167.443C135.185 168.069 131.857 168.698 128.486 168.709C130.114 166.404 132.176 164.446 134.224 162.505C135.348 161.439 136.754 160.289 138.264 160.638C139.079 160.826 139.704 161.412 140.326 161.994C140.526 162.181 140.725 162.368 140.93 162.541C141.774 163.254 143.081 163.749 143.935 163.048ZM325.047 201.867C324.673 202.006 324.255 201.911 323.874 201.791C321.292 200.98 319.195 199.165 317.135 197.381C316.856 197.139 316.578 196.898 316.299 196.661C312.885 193.748 309.18 191.178 305.257 188.999C304.858 188.777 304.439 188.544 304.195 188.158C303.95 187.773 303.957 187.186 304.334 186.928C306.094 185.727 307.234 183.666 307.318 181.538C307.341 180.971 307.981 180.592 308.547 180.638C309.113 180.683 309.606 181.023 310.069 181.352L327.995 194.076C328.344 194.324 328.719 194.611 328.805 195.031C328.875 195.373 328.731 195.719 328.587 196.037C327.814 197.743 326.925 199.396 325.928 200.982C325.702 201.341 325.444 201.719 325.047 201.867ZM307.113 186.772C306.903 187.143 306.72 187.681 307.062 187.938L321.689 198.952C322.491 199.555 323.735 200.12 324.366 199.341C325.091 198.446 325.767 197.512 326.392 196.545C326.563 196.28 326.737 195.978 326.676 195.669C326.62 195.387 326.382 195.182 326.159 195.001C320.791 190.648 315.107 186.684 309.166 183.151L307.113 186.772ZM299.834 193.507C300.07 193.102 300.357 192.658 300.815 192.559C301.166 192.483 301.522 192.633 301.845 192.79C303.606 193.645 305.22 194.805 306.592 196.201C306.922 196.537 306.963 197.078 306.816 197.526C306.669 197.973 306.366 198.35 306.069 198.716C305.592 199.304 305.083 199.915 304.379 200.194C303.62 200.496 302.736 200.35 302.016 199.963C301.296 199.575 300.719 198.969 300.21 198.33C299.545 197.496 298.951 196.495 299.054 195.434C299.122 194.739 299.482 194.11 299.834 193.507ZM302.914 198.177C304.022 198.608 304.731 198.266 304.76 197.54C304.778 197.081 304.378 196.728 304.015 196.449L302.914 195.602C302.551 195.323 302.15 195.03 301.691 195.033C301.232 195.036 300.765 195.509 300.953 195.927C300.925 196.129 301.807 197.746 302.914 198.177ZM298.542 207.12C298.812 207.268 299.098 207.413 299.406 207.419C299.714 207.426 300.048 207.251 300.124 206.953C300.301 206.252 300.765 205.671 301.219 205.102C301.268 205.04 301.318 204.978 301.367 204.916C301.864 204.287 302.343 203.574 302.357 202.772C302.37 201.971 301.706 201.116 300.912 201.226C300.286 201.312 299.704 200.902 299.249 200.463C299.177 200.393 299.105 200.321 299.033 200.249C298.652 199.87 298.266 199.484 297.761 199.319C297.16 199.124 296.342 199.435 296.294 200.065C296.198 201.334 295.144 202.289 294.165 203.103C293.873 203.347 294.137 203.814 294.411 204.079C295.644 205.271 297.038 206.296 298.542 207.12ZM298.737 204.702L296.811 203.399C296.321 203.068 296.36 202.256 296.797 201.857C297.234 201.458 297.912 201.428 298.469 201.627C299.026 201.827 299.489 202.219 299.939 202.603C300.237 202.857 300.278 203.319 300.142 203.686C300.005 204.053 299.728 204.347 299.458 204.631C299.365 204.728 299.262 204.83 299.129 204.847C298.988 204.866 298.855 204.782 298.737 204.702ZM314.011 204.788L314.953 202.787C315.242 202.174 315.521 201.415 315.132 200.861C314.996 200.669 314.797 200.533 314.602 200.401L311.175 198.092C310.805 197.843 310.404 197.584 309.958 197.591C309.43 197.599 308.988 197.976 308.613 198.348C308.051 198.905 307.526 199.499 307.042 200.124C306.673 200.6 306.371 201.384 306.874 201.714L312.119 205.155C312.533 205.427 313.058 205.706 313.493 205.47C313.748 205.331 313.887 205.051 314.011 204.788ZM312.849 203.371C312.629 203.422 312.399 203.366 312.182 203.301C310.858 202.902 309.646 202.138 308.715 201.115C308.406 200.775 308.581 200.174 308.974 199.936C309.368 199.697 309.879 199.752 310.303 199.93C310.577 200.045 310.828 200.205 311.079 200.366C311.216 200.454 311.354 200.542 311.495 200.622C311.648 200.709 311.806 200.789 311.965 200.868C312.416 201.094 312.867 201.32 313.175 201.711C313.59 202.24 313.504 203.221 312.849 203.371ZM314.62 205.607C315.225 205.463 315.409 204.847 315.601 204.206C315.76 203.677 315.923 203.131 316.333 202.821C317.038 202.288 318.037 202.734 318.797 203.186L321.213 204.623C321.598 204.852 321.992 205.089 322.268 205.442C322.544 205.795 322.68 206.294 322.487 206.699C322.358 206.968 322.114 207.147 321.868 207.328C321.667 207.475 321.464 207.624 321.323 207.824C321.141 208.082 321.074 208.404 321.007 208.723C320.923 209.123 320.841 209.517 320.536 209.768C319.979 210.227 319.152 209.859 318.538 209.484L315.134 207.404C314.79 207.194 314.428 206.964 314.26 206.598C314.091 206.233 314.229 205.7 314.62 205.607ZM319.082 207.672C319.57 207.506 319.962 207.144 320.338 206.793C320.61 206.538 320.246 206.118 319.92 205.935L317.835 204.76C317.617 204.638 317.315 204.526 317.146 204.71C316.603 205.303 316.524 206.27 316.964 206.943C317.404 207.616 318.322 207.932 319.082 207.672ZM295.156 207.599C294.689 207.468 294.214 207.334 293.832 207.074C293.24 206.67 292.416 206.768 291.795 207.125C291.173 207.482 290.71 208.054 290.261 208.613C290.012 208.923 289.757 209.247 289.662 209.633C289.567 210.019 289.68 210.487 290.027 210.681L293.664 212.708C293.939 212.861 294.247 213.02 294.555 212.951C294.861 212.884 295.073 212.611 295.257 212.357L296.193 211.07C296.714 210.353 297.258 209.44 296.877 208.64C296.572 207.999 295.874 207.802 295.156 207.599ZM294.005 210.934C293.815 210.985 293.619 210.893 293.444 210.804L290.966 209.543C291.443 208.869 292.349 208.61 293.17 208.692C293.991 208.773 294.754 209.139 295.497 209.498L294.358 210.68C294.256 210.786 294.147 210.897 294.005 210.934ZM276.842 160.518C277.225 161.103 277.105 161.884 276.85 162.536C276.515 163.395 275.948 164.19 275.148 164.647C274.347 165.104 273.295 165.17 272.515 164.68C271.735 164.189 271.343 163.097 271.761 162.275C271.858 162.085 271.99 161.917 272.122 161.749L272.122 161.749C272.248 161.587 272.374 161.426 272.47 161.246C272.533 161.127 272.582 161.002 272.63 160.876L272.631 160.876C272.701 160.694 272.771 160.514 272.883 160.355C273.28 159.793 274.063 159.683 274.751 159.692C275.532 159.703 276.413 159.865 276.842 160.518ZM275.098 160.889C274.03 160.876 273.028 161.772 272.922 162.835C272.879 163.269 273.064 163.809 273.496 163.869C273.82 163.914 274.105 163.664 274.322 163.42C274.783 162.903 275.179 162.329 275.497 161.714C275.604 161.508 275.698 161.244 275.558 161.059C275.456 160.924 275.268 160.892 275.098 160.889ZM300.648 133.028C300.566 132.049 299.912 131.087 298.961 130.842C297.754 130.531 296.583 131.381 295.625 132.179C295.341 132.415 295.045 132.668 294.925 133.017C294.721 133.609 295.088 134.232 295.449 134.744C295.862 135.329 296.304 135.918 296.907 136.305C297.511 136.692 298.315 136.842 298.948 136.506C299.271 136.334 299.522 136.054 299.74 135.761C300.326 134.974 300.731 134.006 300.648 133.028ZM297.97 135.535C297.561 135.597 297.137 135.431 296.836 135.148C296.384 134.723 296.205 134.04 296.363 133.44C296.529 132.809 297.059 132.287 297.693 132.132C298.326 131.976 299.038 132.193 299.477 132.675C299.461 132.807 299.447 132.939 299.433 133.071C299.387 133.521 299.34 133.972 299.184 134.394C298.982 134.941 298.547 135.449 297.97 135.535ZM265.469 288.117C267.695 280.241 271.899 273.093 276.059 266.045C276.762 264.853 277.633 263.541 278.998 263.315C279.536 263.226 279.82 262.641 280.003 262.128C282.259 255.799 282.477 248.761 280.616 242.305C280.084 240.462 280.738 238.509 281.386 236.703L286.396 222.726C285.875 221.825 284.89 221.429 283.891 221.028C283.056 220.693 282.212 220.353 281.624 219.712C279.96 217.899 281.215 215.017 282.518 212.93L305.355 176.357C306.288 174.863 308.334 174.395 310.05 174.793C311.765 175.191 313.23 176.271 314.641 177.324L331.296 189.765C334.276 191.99 337.566 194.833 337.394 198.549C337.299 200.604 336.123 202.432 334.985 204.147L321.785 224.037C320.078 226.609 319.871 229.736 319.663 232.877V232.878C319.569 234.298 319.474 235.722 319.241 237.098C318.103 243.814 313.631 249.376 309.346 254.704L309.078 255.037C308.997 255.138 308.915 255.239 308.834 255.341C304.399 260.864 299.962 267.032 299.713 274.111C299.416 282.548 295.407 290.788 288.953 296.23L294.57 282.605C295.905 279.365 297.142 275.333 294.907 272.634C293.895 271.412 292.367 270.766 290.9 270.164L282.177 266.586C281.576 266.339 280.955 266.088 280.305 266.084C278.279 266.072 277.074 268.27 276.252 270.122C273.409 276.53 269.779 282.588 265.469 288.117ZM294.151 269.613C295.646 270.167 297.752 270.503 298.461 269.075C301.891 262.16 305.415 255.113 310.875 249.657C314.022 246.512 315.951 242.316 317.043 238.003C318.134 233.691 318.443 229.224 318.748 224.786C317.423 225.268 317.307 227.056 317.313 228.466C317.325 231.574 316.782 234.684 315.716 237.604C315.493 238.215 315.194 238.876 314.596 239.133C313.999 239.391 313.119 238.873 313.32 238.255C314.861 233.505 315.435 228.444 314.997 223.47C314.862 221.928 314.574 220.278 313.478 219.185C313.597 221.62 313.716 224.066 313.469 226.492C313.042 230.688 311.537 234.689 310.046 238.635C309.853 239.147 309.618 239.705 309.126 239.946C308.634 240.187 307.871 239.805 308 239.273L310.233 230.041C311.461 224.965 312.668 219.504 310.768 214.64C309.81 214.576 309.585 215.945 309.67 216.901C310.256 223.447 308.446 229.944 306.654 236.268C306.445 237.006 305.705 237.929 305.13 237.421C304.882 237.202 304.87 236.825 304.89 236.495C305.003 234.635 305.513 232.835 306.022 231.037L306.022 231.037L306.022 231.036C306.18 230.478 306.338 229.92 306.484 229.361C307.83 224.204 308.174 218.787 307.49 213.501C306.31 215.014 305.809 216.931 305.337 218.79L302.534 229.824C301.267 234.812 299.648 240.295 295.254 242.975C294.904 243.188 294.498 243.387 294.099 243.292C293.603 243.175 293.322 242.663 293.116 242.197C290.312 235.881 289.961 228.512 292.154 221.958C292.287 221.56 291.882 221.144 291.464 221.111C291.046 221.078 290.654 221.306 290.312 221.548C286.714 224.086 285.336 228.685 284.192 232.937L282.67 238.59C282.448 239.416 282.224 240.249 282.178 241.103C282.107 242.401 282.446 243.67 282.783 244.934C282.862 245.226 282.94 245.519 283.012 245.811C284.476 251.684 283.815 258.063 281.178 263.512C280.789 264.315 281.815 265.046 282.652 265.356L294.151 269.613ZM299.834 215.659C299.234 215.246 298.592 214.774 298.406 214.069C298.122 212.989 299.151 211.904 300.258 211.759C301.366 211.613 302.449 212.148 303.367 212.785C304.66 213.681 306.296 212.314 307.264 211.074C305.958 210.292 304.713 209.08 304.661 207.559C304.61 206.038 306.459 204.589 307.689 205.485C308.167 205.832 308.744 206.044 309.316 206.255C310.172 206.569 311.013 206.879 311.483 207.629C312.017 208.481 311.827 209.634 311.283 210.48C310.74 211.327 309.903 211.934 309.086 212.521C310.259 212.637 311.4 213.055 312.37 213.724L313.428 210.643C313.51 210.404 313.599 210.154 313.787 209.985C314.149 209.66 314.713 209.761 315.177 209.908C316.395 210.294 317.589 210.898 318.392 211.891C319.196 212.883 319.531 214.326 318.969 215.473C318.408 216.62 316.823 217.232 315.749 216.54C315.526 216.397 315.302 216.205 315.079 216.013C314.48 215.5 313.882 214.988 313.304 215.398C315.068 216.772 316.28 218.836 316.62 221.046C322.174 212.586 327.668 204.087 333.102 195.549C333.621 194.734 334.039 193.45 333.195 192.981C329.586 190.979 326.396 188.298 323.214 185.623L323.214 185.623C319.197 182.247 315.192 178.88 310.372 176.904C310.067 176.778 309.732 176.657 309.412 176.741C309.077 176.829 308.842 177.121 308.631 177.396C299.655 189.111 291.6 201.53 284.564 214.503C283.582 216.312 284.896 218.47 286.153 220.1C286.781 220.915 287.993 221.776 288.678 221.008C289.541 220.041 290.956 219.488 292.179 219.92C293.401 220.352 294.162 221.942 293.497 223.055C293.016 223.86 293.957 224.755 294.78 225.205C296.423 226.105 298.108 226.928 299.829 227.67C300.068 227.773 300.346 227.874 300.579 227.757C300.801 227.646 300.891 227.382 300.96 227.144L302.866 220.586C303.18 219.507 303.39 218.107 302.465 217.47L299.834 215.659ZM333.93 197.275C333.677 197.188 333.446 197.441 333.297 197.663L319.026 219.026C318.642 219.601 318.249 220.199 318.137 220.88C318.025 221.562 318.275 222.355 318.896 222.659C319.924 223.162 320.999 222.105 321.659 221.17L334.918 202.378C335.903 200.982 335.07 199.075 334.227 197.589C334.154 197.461 334.07 197.322 333.93 197.275ZM293.749 225.801C293.498 225.618 293.123 225.727 292.912 225.956C292.702 226.185 292.616 226.498 292.537 226.799C292.342 227.539 292.146 228.286 292.117 229.05C292.088 229.815 292.227 230.574 292.365 231.327L293.732 238.755C293.789 239.067 293.856 239.398 294.077 239.625C294.298 239.852 294.728 239.901 294.907 239.639C296.93 236.681 298.981 233.665 300.039 230.241C300.171 229.816 300.209 229.217 299.792 229.06C297.643 228.252 295.605 227.152 293.749 225.801ZM309.532 207.472C308.847 206.82 307.941 206.403 307 206.307C306.142 206.22 305.647 207.425 306.039 208.193C306.431 208.961 307.296 209.342 308.096 209.663C308.661 209.889 309.347 210.103 309.839 209.745C310.547 209.231 310.165 208.076 309.532 207.472ZM303.898 216.081C304.177 215.882 304.213 215.476 304.135 215.142C303.84 213.885 302.462 213.242 301.224 212.874C300.745 212.731 300.149 212.632 299.812 213C299.53 213.308 299.59 213.817 299.833 214.156C300.076 214.495 300.456 214.704 300.824 214.902L302.735 215.932C303.099 216.128 303.561 216.32 303.898 216.081ZM314.777 211.549C314.372 212.091 314.413 212.879 314.751 213.465C315.089 214.051 315.673 214.458 316.291 214.735C316.502 214.83 316.734 214.914 316.962 214.869C317.157 214.83 317.325 214.698 317.444 214.538C317.886 213.948 317.672 213.059 317.166 212.523C316.66 211.987 315.94 211.718 315.247 211.467C315.127 211.423 314.988 211.382 314.879 211.447C314.869 211.453 314.859 211.46 314.851 211.467C314.822 211.49 314.799 211.519 314.777 211.549ZM123.023 260.682C123.288 258.725 123.659 256.572 125.196 255.333C126.421 254.345 128.104 254.187 129.678 254.157C134.834 254.058 140.007 254.895 144.868 256.616C146.406 257.161 148.016 257.877 148.857 259.276C149.767 260.789 149.545 262.698 149.294 264.446L145.389 291.572C148.081 283.716 150.014 275.601 151.152 267.375C151.683 263.537 151.868 259.133 149.19 256.334C145.009 251.964 145.123 245.74 145.239 239.412C145.339 233.95 145.44 228.41 142.783 223.917C141.916 222.451 143.849 220.938 145.457 220.375C152.542 217.894 160.094 216.756 167.596 217.039C168.971 227.903 169.343 238.894 168.706 249.826C168.563 252.278 172.04 252.91 174.481 252.64L259.163 243.249C259.586 243.202 260.044 243.139 260.345 242.837C260.696 242.484 260.713 241.929 260.708 241.432C260.508 221.591 259.937 201.754 258.995 181.935C258.959 181.161 258.86 180.273 258.22 179.837C257.74 179.511 257.108 179.554 256.53 179.61L196.088 185.469C200.058 166.742 204.052 147.663 202.241 128.606C189.028 137.415 171.978 137.349 156.125 136.416C155.466 136.378 154.806 136.338 154.144 136.299C138.888 135.387 122.978 134.436 109.263 141.035C116.444 160.076 123.708 180.86 117.738 200.314C117.21 202.036 116.582 203.726 115.954 205.416C114.985 208.022 114.018 210.625 113.419 213.336C112.433 217.804 112.581 222.808 115.225 226.542C119.055 231.95 122.098 238.1 122.792 244.69C123.451 250.943 121.979 257.146 120.509 263.341C118.973 269.814 117.439 276.279 118.338 282.788C118.49 283.889 118.765 285.073 119.627 285.775L123.023 260.682ZM129.014 182.096C130.616 182.153 131.252 184.163 131.457 185.752L133.078 198.337C129.912 196.696 125.459 199.482 125.55 203.046C122.882 197.897 122.477 191.997 122.076 186.156C121.989 184.885 121.901 183.617 121.791 182.36C120.614 168.921 116.564 155.923 112.538 143.047C111.964 141.211 114.444 140.021 116.347 139.742C128.837 137.911 141.477 138.163 154.124 138.416C159.856 138.531 165.59 138.646 171.311 138.566C181.477 138.425 192.233 137.463 200.479 131.516C202.333 143.872 199.814 156.339 197.326 168.648C196.99 170.313 196.654 171.975 196.33 173.634C193.607 187.554 191.754 202.393 196.963 215.586C197.183 216.142 196.434 216.561 195.849 216.683C191.565 217.577 187.135 217.769 182.789 217.25C180.925 217.028 179.08 216.676 177.236 216.324C175.846 216.06 174.457 215.795 173.059 215.585C162.532 214.006 151.545 215.645 141.938 220.228C141.553 220.412 141.095 220.326 140.692 220.187C138.747 219.513 137.359 217.715 136.666 215.777C135.974 213.838 135.874 211.745 135.782 209.688L135.395 201.062C135.381 200.752 135.462 200.331 135.772 200.321C152.601 199.795 169.41 198.661 186.157 196.92C185.449 192.958 185.378 188.883 185.95 184.898C186.31 182.383 183.945 180.09 181.426 179.753C178.908 179.417 176.417 180.558 174.326 182.001C173.543 182.541 172.792 183.127 172.041 183.714C170.785 184.694 169.531 185.674 168.133 186.433C167.219 186.93 166.119 187.331 165.158 186.93C163.983 186.439 163.589 185.04 163.237 183.792C163.215 183.714 163.193 183.636 163.171 183.559C162.713 181.951 161.956 180.352 160.625 179.341C159.293 178.33 157.285 178.078 155.971 179.111C154.848 179.995 154.492 181.524 154.304 182.941C154.287 183.067 154.271 183.194 154.255 183.321C154.088 184.623 153.916 185.97 153.138 187.014C152.285 188.161 150.381 188.652 149.445 187.572C147.595 185.436 144.347 184.988 141.622 185.737C138.897 186.487 136.565 188.219 134.304 189.914C132.94 187.78 132.827 184.906 134.02 182.671L134.04 182.634C134.264 182.214 134.521 181.733 134.323 181.305C134.2 181.041 133.93 180.878 133.662 180.763C132.058 180.076 130.009 180.663 129.014 182.096ZM177.199 218.17C178.096 218.348 179.198 218.748 179.253 219.661C179.782 228.364 186.699 236.184 195.202 238.111C203.706 240.037 213.13 236.142 218.088 228.97C223.046 221.798 223.435 211.835 219.369 204.122C215.009 195.85 204.412 191.457 195.479 194.218C195.064 192.39 195.111 190.459 195.613 188.654C195.707 188.318 195.828 187.968 196.099 187.749C196.363 187.535 196.72 187.486 197.058 187.446L222.224 184.414C224.437 184.148 226.655 183.881 228.883 183.863C238.466 183.784 248.042 182.828 257.451 181.012C258.913 200.645 259.601 220.335 259.513 240.022C259.509 240.956 259.224 242.197 258.291 242.224C242.453 242.686 226.739 244.769 211.019 246.854C200.458 248.254 189.893 249.654 179.287 250.564C176.923 250.767 174.542 250.945 172.18 250.72C171.752 250.679 171.269 250.591 171.037 250.23C170.896 250.012 170.88 249.739 170.869 249.48L169.456 217.99C169.438 217.584 169.463 217.093 169.815 216.889C170.049 216.753 170.341 216.802 170.606 216.855L177.199 218.17ZM133.867 210.879C133.617 212.515 133.336 214.355 134.407 215.592C138.404 220.208 142.555 225.139 143.618 231.151C144.114 233.959 143.901 236.848 143.688 239.726C143.421 243.351 143.155 246.957 144.31 250.358C144.34 250.447 144.371 250.535 144.402 250.625C144.614 251.231 144.83 251.849 144.761 252.482C144.683 253.208 144.052 253.938 143.333 253.814L134.978 252.373C132.211 251.896 129.288 251.431 126.66 252.419C126.152 252.61 125.567 252.275 125.295 251.805C125.022 251.336 124.986 250.77 124.963 250.228C124.934 249.573 124.913 248.914 124.891 248.253C124.756 244.093 124.619 239.856 122.694 236.212L116.551 224.585C115.645 222.868 114.717 221.075 114.654 219.135C114.612 217.839 114.962 216.566 115.309 215.317L118.373 204.279C119.018 201.955 119.701 199.558 121.229 197.692C124.94 203.988 125.306 212.135 122.175 218.739C121.885 219.35 122.77 219.979 123.401 219.736C124.032 219.492 124.352 218.801 124.574 218.162C125.465 215.605 125.777 212.908 126.09 210.208C126.343 208.023 126.597 205.836 127.157 203.717C127.5 202.42 127.995 201.095 128.998 200.202C130 199.308 131.634 199.002 132.684 199.839C133.488 200.479 133.749 201.572 133.902 202.588C134.305 205.269 134.303 208.01 133.896 210.689C133.887 210.752 133.877 210.816 133.867 210.879ZM148.284 189.088C149.515 190.031 150.721 190.954 152.199 190.783C154.077 190.566 155.247 188.632 155.793 186.822C155.912 186.426 156.019 186.02 156.125 185.614C156.505 184.163 156.888 182.702 157.883 181.61C158.172 181.293 158.589 180.998 159 181.122C159.332 181.223 159.526 181.56 159.681 181.872C159.9 182.313 160.107 182.762 160.314 183.211C160.899 184.477 161.484 185.743 162.333 186.844C163.482 188.334 165.271 189.506 167.142 189.301C168.816 189.118 170.123 187.933 171.397 186.778C171.658 186.541 171.918 186.306 172.18 186.08C175.249 183.434 179.245 181.886 183.296 181.774C182.75 183.14 183.114 184.629 183.472 186.091C183.558 186.443 183.644 186.793 183.716 187.14C184.288 189.874 183.999 192.781 182.9 195.349L155.843 197.432C149.527 197.918 143.194 198.405 136.863 198.182C136.463 198.168 136.053 198.149 135.685 197.992C134.99 197.694 134.577 196.953 134.428 196.212C134.092 194.55 134.858 192.82 136.018 191.585C137.178 190.349 138.694 189.517 140.182 188.706C141.73 187.861 143.449 186.989 145.176 187.349C146.325 187.589 147.312 188.345 148.284 189.088ZM199.519 228.502C195.42 228.418 191.869 225.073 190.652 221.158C190.403 220.359 190.92 219.482 191.633 219.043C192.346 218.604 193.208 218.501 194.04 218.407L200.046 217.732C198.219 214.182 196.919 210.363 196.199 206.436C196.133 206.079 196.074 205.705 196.186 205.361C196.384 204.757 197.035 204.439 197.638 204.236C202.518 202.596 208.377 204.587 211.247 208.861C214.116 213.135 213.74 219.313 210.372 223.206C208.914 224.892 207.003 226.136 204.991 227.093C203.274 227.91 201.419 228.541 199.519 228.502ZM218.97 207.401C219.699 209.81 219.91 212.343 220.01 214.857C218.373 214.609 216.718 214.469 215.062 214.436C214.738 210.207 211.923 206.386 208.223 204.313C204.522 202.24 200.055 201.792 195.873 202.502C195.838 201.906 195.729 201.284 195.621 200.662C195.334 199.02 195.047 197.378 196.108 196.213C196.75 195.509 197.726 195.228 198.662 195.053C202.926 194.259 207.472 195.091 211.177 197.344C214.883 199.597 217.714 203.251 218.97 207.401ZM188.908 220.732C188.901 220.81 188.894 220.886 188.891 220.96C188.863 221.544 189.136 222.08 189.405 222.611C189.477 222.753 189.55 222.895 189.616 223.037C189.928 223.71 190.079 224.597 189.557 225.124C188.294 226.399 187.177 227.82 186.237 229.349C186.004 229.727 185.432 229.758 185.049 229.533C184.667 229.307 184.429 228.905 184.208 228.52C182.811 226.083 181.378 223.533 181.203 220.728C181.182 220.38 181.22 219.958 181.529 219.795C181.665 219.723 181.826 219.721 181.98 219.721L188.232 219.702C188.382 219.701 188.539 219.703 188.669 219.777C188.976 219.951 188.94 220.356 188.908 220.732Z" fill="#00160A"/>
</svg>
