<svg width="42" height="55" viewBox="0 0 42 55" fill="none" xmlns="http://www.w3.org/2000/svg">
<path d="M25.7168 51.4631C19.6044 52.5409 14.9885 52.028 11.8692 49.9243C8.74985 47.8207 6.76069 44.3332 5.90171 39.4616L2.69269 21.2624C1.83371 16.3909 2.5101 12.4333 4.72184 9.38966C6.93359 6.34602 11.0956 4.28531 17.208 3.20754L33.3392 0.363179L34.6763 7.9462L18.5451 10.7906C16.0174 11.2363 14.2385 12.166 13.2084 13.5796C12.2241 14.9852 11.9589 16.9749 12.4127 19.5485L13.3487 24.8566L33.8918 21.2343L35.2289 28.8173L14.6858 32.4396L15.6218 37.7477C16.0675 40.2754 16.9972 42.0543 18.4109 43.0845C19.8624 44.0606 21.852 44.3258 24.3797 43.8801L40.6487 41.0114L41.9858 48.5944L25.7168 51.4631Z" fill="#2B2B2B"/>
</svg>
